<svg xmlns="http://www.w3.org/2000/svg" viewBox="0 0 32 32" width="32" height="32">
  <!-- Simplified Kokugikan Tower for favicon -->
  <defs>
    <linearGradient id="fgradient" x1="0%" y1="0%" x2="0%" y2="100%">
      <stop offset="0%" style="stop-color:#2a4494;stop-opacity:1" />
      <stop offset="100%" style="stop-color:#1e3a8a;stop-opacity:1" />
    </linearGradient>
  </defs>

  <!-- Base -->
  <rect x="6" y="28" width="20" height="2" fill="#1e3a8a"/>

  <!-- Lower building -->
  <rect x="8" y="20" width="16" height="8" fill="url(#fgradient)"/>

  <!-- Middle section -->
  <rect x="10" y="14" width="12" height="6" fill="url(#fgradient)"/>

  <!-- Upper tower -->
  <rect x="12" y="8" width="8" height="6" fill="url(#fgradient)"/>

  <!-- Roof -->
  <polygon points="16,4 12,8 20,8" fill="#2a4494"/>
  <polygon points="16,3 13,7 19,7" fill="#3b5bb5"/>

  <!-- Spire -->
  <rect x="15" y="2" width="2" height="2" fill="#3b5bb5"/>
  <circle cx="16" cy="1.5" r="1" fill="#ffffff"/>

  <!-- Windows -->
  <rect x="13" y="9" width="2" height="3" fill="#ffffff" opacity="0.8"/>
  <rect x="17" y="9" width="2" height="3" fill="#ffffff" opacity="0.8"/>

  <rect x="11" y="16" width="2" height="2" fill="#ffffff" opacity="0.8"/>
  <rect x="15" y="16" width="2" height="2" fill="#ffffff" opacity="0.8"/>
  <rect x="19" y="16" width="2" height="2" fill="#ffffff" opacity="0.8"/>

  <rect x="10" y="23" width="3" height="3" fill="#ffffff" opacity="0.8"/>
  <rect x="19" y="23" width="3" height="3" fill="#ffffff" opacity="0.8"/>
</svg>
