<svg xmlns="http://www.w3.org/2000/svg" viewBox="0 0 200 200" width="200" height="200">
  <!-- Kokugikan Tower stylized -->
  <defs>
    <linearGradient id="towerGradient" x1="0%" y1="0%" x2="0%" y2="100%">
      <stop offset="0%" style="stop-color:#2a4494;stop-opacity:1" />
      <stop offset="100%" style="stop-color:#1e3a8a;stop-opacity:1" />
    </linearGradient>
  </defs>

  <!-- Base platform -->
  <rect x="30" y="160" width="140" height="8" fill="#1e3a8a"/>

  <!-- Lower building structure -->
  <rect x="50" y="120" width="100" height="40" fill="url(#towerGradient)"/>

  <!-- Middle section -->
  <rect x="60" y="90" width="80" height="30" fill="url(#towerGradient)"/>

  <!-- Upper tower section -->
  <rect x="70" y="50" width="60" height="40" fill="url(#towerGradient)"/>

  <!-- Roof/crown -->
  <polygon points="100,30 70,50 130,50" fill="#2a4494"/>
  <polygon points="100,25 75,45 125,45" fill="#3b5bb5"/>

  <!-- Tower spire -->
  <rect x="95" y="20" width="10" height="10" fill="#3b5bb5"/>
  <circle cx="100" cy="18" r="5" fill="#ffffff"/>

  <!-- Windows -->
  <rect x="75" y="60" width="10" height="12" fill="#ffffff" opacity="0.7"/>
  <rect x="95" y="60" width="10" height="12" fill="#ffffff" opacity="0.7"/>
  <rect x="115" y="60" width="10" height="12" fill="#ffffff" opacity="0.7"/>

  <rect x="70" y="100" width="12" height="12" fill="#ffffff" opacity="0.7"/>
  <rect x="94" y="100" width="12" height="12" fill="#ffffff" opacity="0.7"/>
  <rect x="118" y="100" width="12" height="12" fill="#ffffff" opacity="0.7"/>

  <rect x="60" y="135" width="15" height="15" fill="#ffffff" opacity="0.7"/>
  <rect x="92" y="135" width="15" height="15" fill="#ffffff" opacity="0.7"/>
  <rect x="125" y="135" width="15" height="15" fill="#ffffff" opacity="0.7"/>

  <!-- Decorative circles (traditional Japanese motif) -->
  <circle cx="100" cy="180" r="3" fill="#3b5bb5"/>
  <circle cx="85" cy="180" r="3" fill="#3b5bb5"/>
  <circle cx="115" cy="180" r="3" fill="#3b5bb5"/>
</svg>
